<?xml version="1.0" standalone="no"?><!DOCTYPE svg PUBLIC "-//W3C//DTD SVG 1.1//EN" "http://www.w3.org/Graphics/SVG/1.1/DTD/svg11.dtd"><svg t="1586080218192" class="icon" viewBox="0 0 1024 1024" version="1.1" xmlns="http://www.w3.org/2000/svg" p-id="2095" xmlns:xlink="http://www.w3.org/1999/xlink" width="200" height="200"><defs><style type="text/css"></style></defs><path d="M517.9 528.9m-363.2 0a363.2 363.2 0 1 0 726.4 0 363.2 363.2 0 1 0-726.4 0Z" fill="rgba(0,0,0,0.3)" p-id="2096"></path><path d="M669.9 697.6c-4.3 0-8.6-1.6-11.9-4.9l-304-304c-6.6-6.6-6.6-17.2 0-23.8 6.6-6.6 17.2-6.6 23.8 0l304 304c6.6 6.6 6.6 17.2 0 23.8-3.3 3.3-7.6 4.9-11.9 4.9z" fill="#FFFFFF" p-id="2097"></path><path d="M365.9 697.6c-4.3 0-8.6-1.6-11.9-4.9-6.6-6.6-6.6-17.2 0-23.8l304-304c6.6-6.6 17.2-6.6 23.8 0 6.6 6.6 6.6 17.2 0 23.8l-304 304c-3.3 3.3-7.6 4.9-11.9 4.9z" fill="#FFFFFF" p-id="2098"></path></svg>