<svg height="135" viewBox="0 0 135 135" width="135" xmlns="http://www.w3.org/2000/svg"><circle cx="67.5" cy="67.5" opacity=".6" r="67.5"/><g fill="none" stroke="#fff" stroke-width="3"><path d="m12.241 15.052a3.037 3.037 0 0 0 -4.451-2.564 13.361 13.361 0 0 0 -7.79 12.179 13.911 13.911 0 0 0 7.79 12.393 3.037 3.037 0 0 0 4.451-2.56z" transform="translate(30.467 45.268)"/><path d="m29.5 34.509a3.037 3.037 0 0 0 4.451 2.564 13.752 13.752 0 0 0 0-24.785 3.037 3.037 0 0 0 -4.451 2.564z" transform="translate(63.509 45.041)"/><g stroke-miterlimit="10"><path d="m4.418 28.154c0-15.384 13.167-28.654 29.192-28.654a28.349 28.349 0 0 1 28.638 28.128" transform="translate(34.248 29.891)"/><path d="m44.62 23.419c-2.277 10.439-10.039 20.607-26.064 20.181" stroke-linecap="round" transform="translate(51.704 59.638)"/></g></g><ellipse cx="70.796" cy="102.541" fill="#fff" rx="4.273" ry="2.958"/></svg>