<svg height="200" viewBox="0 0 1024 1024" width="200" xmlns="http://www.w3.org/2000/svg"><path d="m875.432137 148.567863c-198.090484-198.090484-523.981279-198.090484-722.071763 0s-198.090484 523.981279 0 722.071763 523.981279 198.090484 722.071763 0 198.090484-517.591264 0-722.071763zm-185.310452 498.421217c12.780031 12.780031 12.780031 31.950078 0 44.730109s-31.950078 12.780031-44.730109 0l-134.190328-134.190328-134.190328 134.190328c-12.780031 12.780031-31.950078 12.780031-44.730109 0s-12.780031-31.950078 0-44.730109l134.190328-134.190328-134.190328-134.190328c-12.780031-12.780031-12.780031-31.950078 0-44.730109s31.950078-12.780031 44.730109 0l134.190328 134.190328 134.190328-134.190328c12.780031-12.780031 31.950078-12.780031 44.730109 0s12.780031 31.950078 0 44.730109l-134.190328 134.190328z" fill="#1296db"/></svg>