<svg enable-background="new 0 0 76 34" viewBox="0 0 76 34" xmlns="http://www.w3.org/2000/svg"><path clip-rule="evenodd" d="m19.87 27.72c-.06.22-.11.44-.18.65-.62 1.96-1.82 3.44-3.67 4.36-.33.17-.68.31-1.01.46-.05.02-.11.05-.16.07 0 .01.01.02.01.04 1.69-.01 3.37-.03 5.07-.04v-5.66c-.01 0-.01-.01-.02-.01-.02.04-.03.09-.04.13zm-11.8 5.3c-.42 0-.78-.15-1.1-.41-.24-.2-.4-.44-.45-.74-.03-.18-.05-.37-.05-.55-.01-2.67-.01-5.34-.01-8.01 0-6.75 0-13.49 0-20.24 0-.21 0-.43.03-.64.07-.55.43-.94.97-1.07.14-.05.29-.06.44-.07.27-.01.53 0 .8-.01.05 0 .1-.01.15-.01v-.21c-.3-.04-8.58-.02-8.71.02v.21h.19c.33 0 .65-.01.98.02.64.05 1.1.45 1.21 1.08.03.16.04.33.04.5v28.43.16c-.03.67-.35 1.14-.97 1.41-.2.09-.41.13-.63.13-.23 0-.46 0-.7 0-.05 0-.1.01-.15.01v.22h8.78v-.23c-.07 0-.12 0-.18 0-.21 0-.43 0-.64 0zm63.33-30.28c.55-.53.97-1.16 1.31-1.84.01-.03.02-.06.03-.1h-2.55c.04.14.1.27.12.4.09.4-.01.78-.16 1.15-.17.43-.43.81-.72 1.16-.04.04-.07.09-.12.16.24.01.44-.01.64-.06.57-.15 1.03-.47 1.45-.87zm-8.22-.55c.29.36.6.69.98.96.34.25.72.43 1.14.5.14.02.28.04.45.02-.05-.06-.09-.11-.13-.16-.36-.46-.67-.94-.83-1.51-.1-.38-.11-.77.07-1.13.01-.02.01-.04.01-.07h-2.56c.03.07.05.12.08.17.23.43.49.84.79 1.22zm.65 13.68v-11.5c.28-.04 7.2-.03 7.31.01.03.38.02 2.83-.02 2.97h-5.51v.32c.02.01.02.01.03.01 1.8 0 3.6 0 5.4.01h.03s.02 0 .03.01c.01 0 .01.01.01.01s.01.01.02.02v2.06h-5.53v.34h5.54v.23c0 1.37-.01 2.74 0 4.11 0 .34-.11.63-.3.9-.16.22-.37.38-.63.47-.03.01-.07.03-.13.06.67.04 2.82.02 2.95-.02 0-3.95 0-7.9 0-11.87h-2.73c-.3 0-.6 0-.91 0-.3 0-.6.01-.92-.01v-3.34c-.26-.03-1.77-.02-1.91.01v1.1 1.11 1.12h-1.57c-.52 0-1.03 0-1.55 0-.51 0-1.03 0-1.55 0v11.88c.24.04 1.81.03 1.94-.01zm-41.38-14.81v.23h.22c.31 0 .63-.01.94.02.65.05 1.1.45 1.21 1.09.03.16.03.33.03.5v28.24.38c-.03.48-.21.88-.62 1.17-.3.21-.62.33-.99.33-.23 0-.46 0-.7 0-.04 0-.09.01-.13.01v.21c.29.04 6.21.02 6.34-.02 0-.07 0-.15 0-.22 0-3.46-.01-6.93-.01-10.39 0-6.48 0-12.95 0-19.43 0-.2 0-.39.01-.59.02-.67.41-1.13 1.07-1.27.12-.03.25-.03.38-.03.26-.01.51 0 .77-.01h.18c.01-.05.01-.08.01-.12 0-.03 0-.07-.01-.11h-8.7zm40.53 21.65c-.14-.01-.28-.01-.43-.02.69-1.48 1.18-3 1.49-4.59h-2.2c.08 1.54-.16 3.02-.63 4.46-.48 1.45-1.16 2.79-2.05 4.03.04.03.06.05.08.06.04.03.08.05.13.08.85-.58 1.53-1.33 2.12-2.17.01.01.03.01.04.02v.2 8.34c0 .08.01.16.02.24h1.46c0-.05 0-.09 0-.14 0-3.45 0-6.9 0-10.35-.02-.05-.02-.1-.03-.16zm12.53 10.52c-.95-.68-1.81-1.45-2.55-2.35-.68-.83-1.24-1.73-1.59-2.75-.02-.06-.04-.12-.06-.19.55-.13 1.04-.34 1.51-.61.55-.32 1.19-.79 1.29-.97-.78-.3-1.56-.59-2.33-.89-.01.03-.02.04-.02.05.01.44-.17.81-.44 1.14-.25.3-.55.55-.88.76-.03.02-.07.03-.12.06v-1.41c-.51-.18-1.01-.35-1.52-.52.15-.16.29-.31.42-.46.08-.1.16-.13.28-.13h4.11.21v-4.12h-1.45c-.24 0-.49 0-.73 0s-.48.01-.76-.01c.16-.13.29-.23.41-.33.12-.11.24-.21.36-.33.12-.11.23-.23.34-.35s.22-.25.33-.38c.1-.13.2-.26.29-.39s.19-.25.27-.42h-5.23c.01-.17.02-.32.03-.48h-1.74c-.01.05-.01.09-.02.13-.04.6-.12 1.18-.25 1.77-.19.86-.49 1.67-.98 2.42-.34.53-.76 1-1.3 1.33-.01.01-.02.03-.03.05.09.09.19.17.28.26.52-.2.99-.48 1.47-.83v1.7h2.36l.01.04c-.89 1.07-2.01 1.81-3.31 2.29v.25c.17-.03.31-.05.46-.08s.3-.05.44-.09c.15-.03.29-.07.44-.11s.29-.08.43-.13.29-.09.43-.15c.15-.05.29-.11.44-.18.14-.06.27-.13.41-.19.13-.07.27-.14.4-.22s.26-.16.38-.24c.12-.09.24-.18.36-.27.11-.09.23-.18.36-.29v.75c0 .1-.03.18-.09.25-.37.49-.77.94-1.21 1.36-.96.92-2.05 1.64-3.33 2.07-.03.01-.05.02-.07.03v.23c.05-.01.09-.01.12-.01.77-.17 1.53-.38 2.27-.67.81-.32 1.58-.72 2.23-1.32.01-.01.04-.02.07-.03 0 .14-.01.26 0 .38.04.31-.07.55-.25.8-.66.92-1.4 1.76-2.3 2.45-.67.51-1.41.9-2.23 1.1-.09.02-.19.05-.29.07v.24c.03 0 .05.01.06.01.83-.09 1.65-.24 2.45-.53.95-.34 1.8-.82 2.5-1.56.01-.01.03-.01.04-.02.01.02.01.03.01.04v1.11c0 .04-.01.09-.03.13-.17.37-.42.66-.82.8-.05.02-.11.05-.16.07h2.58c0-.08.01-.15.01-.22 0-1.64 0-3.28 0-4.92v-.22c.12.01.22.02.34.03.03.21.05.42.07.62.14 1.03.41 2.03.88 2.96.34.68.79 1.27 1.39 1.76h2.65c-.01-.05-.05-.1-.1-.14zm-3.1-12.03c.04.13.05 3.04.02 3.39-.12.04-2.5.05-2.82.01.34-.51.6-1.04.79-1.62.18-.58.29-1.17.31-1.79h1.7zm-4.79-2.21h2.75c.05.17.03.34 0 .5-.06.28-.18.54-.33.78-.09.15-.2.28-.29.43-.07.11-.16.15-.3.15-.74-.01-1.48 0-2.21 0h-.2c.3-.6.43-1.22.58-1.86zm.26 5.49c-.07.11-.15.15-.28.15-.35-.01-.71 0-1.09 0 0-.08 0-.14 0-.19 0-.87 0-1.73 0-2.6 0-.04.01-.08.02-.11.08-.15.17-.3.26-.45.03-.05.07-.07.13-.07h1.93c.02 0 .03.01.07.02-.01.16-.02.33-.04.49-.12.99-.45 1.91-1 2.76zm-12.1 7.56c-.66-.55-1.12-1.23-1.47-2-.1-.21-.18-.43-.28-.63-.46-.96-.92-1.92-1.38-2.88-3.6-7.54-7.21-15.07-10.81-22.6-.2-.42-.41-.83-.6-1.25-.25-.55-.01-1.1.56-1.3.1-.04.21-.06.32-.07.21-.01.43-.01.64-.01.06 0 .12-.01.19-.01v-.22c-.27-.04-9.36-.02-9.49.02 0 .06.01.12.01.2h.27c.4.01.8.05 1.19.16 1.01.27 1.78.85 2.3 1.76.13.24.25.48.37.72.08.17.15.35.23.52 3.59 7.48 7.17 14.97 10.75 22.45.7 1.46 1.39 2.91 2.09 4.37.09.19.16.38.17.6.04.51-.24.92-.71 1.03-.11.03-.23.03-.35.04-.27.01-.55.01-.82.01-.04 0-.09.01-.15.01 0 .1.01.2.01.29h9.45v-.25c-.16-.01-.3-.02-.45-.04-.76-.11-1.44-.42-2.04-.92zm-5.67-30.96v.2h.25c.3.02.6.01.88.06.77.14 1.4.52 1.8 1.21.33.57.38 1.18.27 1.81-.09.53-.3 1.03-.55 1.51-.32.61-.64 1.23-.96 1.85-.13.25-.26.5-.39.75.01.01.01.01.02.02.03-.05.07-.11.1-.16.22-.37.43-.74.65-1.11.75-1.24 1.55-2.46 2.46-3.6.48-.6 1-1.18 1.58-1.68.52-.45 1.13-.67 1.82-.67h.23v-.2c-.2-.04-8.03-.03-8.16.01zm-9.54 31.93c-.62-.11-1.16-.38-1.57-.86-.52-.6-.65-1.31-.54-2.08.08-.57.3-1.1.57-1.61.43-.82.86-1.65 1.29-2.48.03-.05.05-.1.07-.15-.05.04-.08.08-.11.13-.18.3-.35.61-.53.91-.78 1.31-1.61 2.58-2.55 3.78-.48.6-.99 1.18-1.57 1.69-.55.48-1.18.73-1.91.72-.07 0-.14 0-.21 0v.23h8.18v-.22c-.15 0-.29.01-.42 0-.24-.02-.47-.02-.7-.06z" fill="#fff" fill-rule="evenodd" opacity=".8"/></svg>