<svg enable-background="new 0 0 160 42" viewBox="0 0 160 42" xmlns="http://www.w3.org/2000/svg"><g clip-rule="evenodd" fill="#fff" fill-rule="evenodd" opacity=".7"><path d="m57.9 38.5-1.1-1.5c.5-.1.8-.3 1-.5s.3-.5.3-.9c0-.3-.1-.6-.3-.8s-.4-.4-.7-.5-.7-.1-1.3-.1h-2v.2h.2c.2 0 .4.1.5.2s.1.3.1.6v3.5c0 .3 0 .5-.1.6-.1.2-.3.2-.5.2v.2h2.3v-.2h-.3c-.2 0-.3-.1-.5-.2-.1-.1-.1-.3-.1-.6v-1.6h.1.1.4l1.8 2.5h1.4v-.2c-.3 0-.5-.1-.7-.2-.1-.1-.3-.3-.6-.7zm-2.2-1.7c-.1 0-.2 0-.2 0v-2.2c.3 0 .5-.1.6-.1.3 0 .6.1.8.3s.3.5.3.8-.1.6-.4.8c-.2.3-.6.4-1.1.4zm10.1-2.5h.2c.1 0 .2 0 .4.1.1 0 .1.1.2.2 0 .1.1.3.1.5v3.5c0 .3 0 .5-.1.6s-.3.2-.5.2h-.2v.2h2.3v-.2h-.2c-.1 0-.2 0-.4-.1-.1 0-.1-.1-.2-.2 0-.1-.1-.3-.1-.5v-3.5c0-.3 0-.5.1-.6s.3-.2.5-.2h.2v-.2h-2.3zm13 4.8c-.3.2-.6.2-.9.2-.4 0-.8-.1-1.1-.3s-.6-.5-.7-.8c-.2-.4-.2-.8-.2-1.3 0-.6.1-1.1.2-1.5s.4-.7.7-.9.6-.3 1-.3.8.1 1.1.4.5.6.7 1.2h.1l-.1-1.8h-.1c0 .1-.1.2-.1.3-.1 0-.1.1-.2.1s-.1 0-.2-.1c-.4-.2-.8-.3-1.1-.3-.5 0-1 .1-1.4.4s-.8.6-1 1-.5 1-.5 1.6c0 .7.2 1.2.6 1.7.5.7 1.2 1 2.1 1 .5 0 .9-.1 1.3-.3s.7-.6.9-1l-.1-.1c-.4.4-.7.7-1 .8zm11.1-4.8h.2c.1 0 .2 0 .4.1.1 0 .1.1.2.2 0 .1.1.3.1.5v1.5h-2.5v-1.5c0-.3 0-.4.1-.5 0-.1.1-.2.2-.2.1-.1.2-.1.4-.1h.2v-.2h-2.3v.2h.2c.1 0 .2 0 .4.1.1 0 .1.1.2.2 0 .1.1.3.1.5v3.5c0 .3 0 .5-.1.6s-.3.2-.5.2h-.2v.2h2.3v-.2h-.2c-.1 0-.2 0-.4-.1-.1 0-.1-.1-.2-.2 0-.1-.1-.3-.1-.5v-1.6h2.5v1.6c0 .3 0 .5-.1.6s-.3.2-.5.2h-.2v.2h2.3v-.2h-.4c-.1 0-.2 0-.4-.1-.1 0-.1-.1-.2-.2 0-.1-.1-.3-.1-.5v-3.5c0-.3 0-.4 0-.5s.1-.2.2-.2c.1-.1.2-.1.4-.1h.2v-.2h-2.3v.2zm20.8 4.1-1.9-4.2h-1.5v.2c.2 0 .4 0 .5.1s.2.1.2.2c.1.1.1.3.1.5v3.5c0 .3 0 .5-.1.6s-.3.2-.5.2h-.2v.2h1.9v-.2h-.2c-.2 0-.4-.1-.5-.2s-.1-.3-.1-.6v-3.6l2.1 4.5h.1l2.1-4.5v3.6c0 .3 0 .5-.1.6s-.2.2-.5.2h-.2v.2h2.3v-.2h-.2c-.2 0-.4-.1-.5-.2s-.1-.3-.1-.6v-3.5c0-.3 0-.5.1-.6s.3-.2.5-.2h.2v-.2h-1.5zm14.1.6c-.1.1-.3.2-.4.2s-.4.1-.7.1h-.9c-.2 0-.2 0-.3 0s-.1-.1-.1-.1 0-.2 0-.4v-1.8h1.2c.2 0 .4 0 .5.1s.2.1.2.2.1.2.1.5h.2v-1.9h-.2c0 .3-.1.5-.2.6s-.3.1-.6.1h-1.2v-2.1h1.5c.3 0 .4 0 .6.1.1.1.2.1.3.2s.1.3.2.6h.2l-.1-1.2h-4.1v.2h.2c.2 0 .4 0 .5.2.1.1.1.3.1.6v3.5c0 .3 0 .4-.1.5s-.1.2-.2.2c-.1.1-.2.1-.4.1h-.2v.2h4.1l.5-1.3h-.2c-.1.2-.3.4-.5.6zm11.4-4.5c-.4-.2-1-.3-1.8-.3h-2.2v.2h.2c.2 0 .4.1.5.2s.1.3.1.6v3.5c0 .3 0 .5-.1.6s-.3.2-.5.2h-.2v.2h2.4c1 0 1.8-.3 2.3-.8s.7-1.1.7-1.9c0-.6-.1-1-.4-1.5-.2-.5-.6-.8-1-1zm-.1 4.2c-.4.4-.9.7-1.5.7-.2 0-.5 0-.8-.1v-4.6c.3-.1.6-.1.8-.1.6 0 1.1.2 1.6.6s.6 1 .6 1.8c-.1.6-.3 1.2-.7 1.7zm8.4-4.3h.2c.1 0 .2 0 .4.1.1 0 .1.1.2.2 0 .1.1.3.1.5v3.5c0 .3 0 .5-.1.6s-.3.2-.5.2h-.2v.2h2.3v-.2h-.2c-.1 0-.2 0-.4-.1-.1 0-.1-.1-.2-.2 0-.1-.1-.3-.1-.5v-3.5c0-.3 0-.5.1-.6s.3-.2.5-.2h.2v-.2h-2.3zm13.7 4.2-1.9-4.5h-.1l-1.9 4.4c-.2.4-.3.6-.4.8-.1.1-.2.1-.4.2v.2h1.7v-.2c-.3 0-.4-.1-.5-.1s-.1-.1-.1-.2.1-.3.1-.5l.4-.8h2.1l.3.8c.1.2.2.4.2.5s0 .2-.1.2-.2.1-.4.1v.2h2.1v-.2c-.2 0-.4-.1-.5-.2-.3-.2-.4-.4-.6-.7zm-3.1-1.1.9-2.2.9 2.2zm-78.9-7.6c1.4.1 2.1-.5 2-1.8v-10.2h-10.8l1.1-1.4h9.8v-2h-16.9v2h2.6l-1.1 1.4h-1.5v12.1h3.6v-10h1v10h3.1v-10h1v10h3.1v-10h1.1v10zm-22.5-18.2h1.4v2.8h-1.4v2h1.4v11.4l-1.4.2v1.8l7.2-.8v-2.1l-1.2.1v-10.6h1.2v-2h-1.2v-2.8h1.2v-2h-7.2zm24.5-2.1h-4.1v2h-2v-2h-4.7v2h-2v-2h-4v4.1h16.9v-4.1zm13.1 0h-6.2l-.8 1.1h-3.6v2h1.8l-1.8 2h5.9l1.9-2h10.4l1.2 2h5.2l-1.2-2h1.2v-2h-15zm-10.7 7.8h18.4v12.5h3.4c1.6.1 2.3-.5 2.2-1.8v-10.7h.5v-2h-24.5zm17.1 1.1h-17v11.4h14.8c1.6.1 2.3-.5 2.1-1.8zm-5.1 8.8c.1.7-.2 1-.8.9h-5.9v-7.6h6.7zm16.1 2.6h4.9v-20.3l-5.9.6v2l1-.1zm11-11.5.4-2.1h12.2v-2h-11.6l.3-1.5h11.3v-2h-10.9l.3-1.1h-4.9l-.2 1.1h-2.3v2h1.8l-.3 1.5h-1.5v2h1.1l-1.1 4.3h12.5l-1 6.5c0 .9-.4 1.2-1.3 1.1h-4.4c-.8.1-1.2-.2-1.2-1.1l-.3-3h-4.1l.5 4.1c-.1 1.6.6 2.2 2.3 1.8h10.9c1.6.4 2.4-.2 2.4-1.8l1.5-9.7h-12.4zm39.1-7.8v-1h-4.4v1h-5.1v-1h-4.4v1h-.4v1.9h.4v5.8h11.8c1.4.1 2.1-.5 2-1.8v-3.9h.5v-1.9h-.4zm-4.4 4.9c.1.6-.2.8-.9.8h-4.3v-1.3h5.1zm0-2.1h-5.1v-.9h5.1zm-.2 5.2h-4.5v.6h-5.2v2h.5l-.5 8.6h3.6l.5-8.6h1.1v8.6h3.1c.9 0 1.4-.5 1.4-1.4v-7.3h1l.4 8.6h3.7l-.4-8.6h.4v-2h-5.1zm-10.8-9h-3.5v1.1h-1.2v-1.1h-3.5v1.1h-.5v2h.5v11.1c0 .4.2 1 .8 1.6l1.5 1.6-2.8 2.9h3.9l.6-.6.8.6h3.9l-2.8-2.9 1.5-1.6c.5-.6.8-1.2.8-1.6v-11.1h.5v-2h-.5zm-3.5 14.2c0 .4-.1.7-.3.8l-.3.3-.2-.3c-.2-.1-.3-.3-.3-.8v-11.1h1.2z"/><path d="m22.6 34c-.3 1.6-.4 2.6-.3 3s.4.7.8 1c.1 0 .1.1.2.1 1 0 2.1-.2 3.2-.3 1.8-.3 3.5-.8 5-1.5l-5.4-10.6h-1.9zm10.5-12.3c.8-1 1.3-2.2 1.6-3.8.4-2.2.2-3.9-.6-5s-2.4-1.6-4.8-1.6h-2.3l-2.5 12.9h1.2c2 0 3.6-.2 4.6-.6 1.1-.3 2-1 2.8-1.9zm10.7-5.9c-1.8-10.2-12.4-16.9-23.8-14.9-11.3 2-19 11.9-17.3 22.1 1.1 6.5 5.9 11.6 12.2 13.9.2-.5.5-1.4.8-2.8l3.7-19.2c.3-1.6.4-2.6.3-3s-.4-.7-.8-1c-.5-.2-1.3-.4-2.7-.4l.2-.8h13.6c3.6 0 6.1.2 7.7.7s2.7 1.4 3.5 2.7 1 2.9.7 4.7c-.4 2.2-1.5 4-3.4 5.4-1.2.9-2.7 1.6-4.6 2l3.7 7.2c4.7-4.2 7.3-10.4 6.2-16.6zm-42.4 4.2c0-2 .3-4 1-5.9-1.2 2.4-1.8 5.1-1.8 7.9 0 10.7 9.4 19.5 21 19.5 4.9 0 9.5-1.6 13.1-4.2-3.3 1.8-7.2 2.9-11.3 2.9-12.2-.1-22-9.1-22-20.2z"/></g></svg>