<svg height="200" viewBox="0 0 1024 1024" width="200" xmlns="http://www.w3.org/2000/svg"><path d="m652.189 114.635s-55.86-22.614-140.234-22.614c-84.37 0-140.23 25.903-140.23 25.903l280.549 285.449z" fill="#fb5453"/><path d="m811.202 217.796c-61.928-58.727-121.8-79.649-121.8-79.649l-2.06 392.072 210.411-199.332c0 .085-24.535-54.364-86.55-113.09z" fill="#6468f1"/><path d="m906.498 368.778-289.293 276.757h292.667s22.95-55.119 22.95-138.419c-.087-83.215-26.324-138.338-26.324-138.338z" fill="#5283f0"/><path d="m696.62 887.697s56.813-22.842 118.033-80.602c61.223-57.757 83.1-113.488 83.1-113.488l-409.132-1.946z" fill="#00b2fe"/><path d="m371.806 911.213s55.864 22.61 140.234 22.61c84.455 0 140.234-25.902 140.234-25.902l-280.548-285.45z" fill="#66d020"/><path d="m224.484 808.047c61.934 58.732 121.806 79.65 121.806 79.65l2.057-392.072-210.411 199.33c.084-.08 24.619 54.365 86.548 113.092z" fill="#9ad122"/><path d="m114.134 368.778s-22.956 55.107-22.956 138.378c0 83.276 26.244 138.379 26.244 138.379l289.372-276.672h-292.66z" fill="#ffc71a"/><path d="m339.07 138.147s-56.814 22.843-118.034 80.6c-61.222 57.758-83.1 113.494-83.1 113.494l409.132 1.942z" fill="#ff7612"/></svg>