<svg height="100" viewBox="0 0 1024 1024" width="100" xmlns="http://www.w3.org/2000/svg"><g fill="#fff"><path d="m1023.968 512c0 282.784-229.216 512-512 512-282.752 0-511.968-229.216-511.968-512s229.216-512 511.968-512c282.784 0 512 229.216 512 512zm-47.68 0c0-256.448-207.872-464.32-464.32-464.32-256.416 0-464.288 207.872-464.288 464.32s207.872 464.32 464.32 464.32 464.32-207.872 464.32-464.32z"/><path d="m677.536 495.744-260.288-150.272a18.784 18.784 0 0 0 -28.16 16.256v300.544c0 14.432 15.68 23.456 28.16 16.256l260.288-150.272a18.784 18.784 0 0 0 0-32.512"/></g></svg>