<svg height="50" viewBox="0 0 50 50" width="50" xmlns="http://www.w3.org/2000/svg" xmlns:xlink="http://www.w3.org/1999/xlink"><clipPath id="a"><path d="m14681-11581h50v50h-50z"/></clipPath><g clip-path="url(#a)" transform="translate(-14681 11581)"><path d="m0 0h50v50h-50z" fill="none" transform="translate(14681 -11581)"/><circle cx="20.5" cy="20.5" fill="#fff" r="20.5" transform="translate(14685.999 -11577)"/><g fill="none" stroke="#333" stroke-linecap="round" stroke-width="2.5"><path d="m20.5 0a20.482 20.482 0 1 1 -7.832 1.549 64.994 64.994 0 0 1 .055 7.279" stroke-linejoin="round" transform="matrix(-.53 .848 -.848 -.53 14734.248 -11562.522)"/><path d="m14703.032-11566.5 5.864 6.659 5.853-6.659" transform="translate(-2.781 2.241)"/><path d="m14702.2-11559.612h12" transform="translate(-1.946 2.013)"/><path d="m14702.2-11559.612h12" transform="translate(-1.946 6.847)"/><path d="m14709.09-11559.613v10.441" transform="translate(-2.839 2.014)"/></g></g></svg>