<svg height="64" viewBox="0 0 1024 1024" width="64" xmlns="http://www.w3.org/2000/svg"><path d="m512 407.5c-82.5 0-149.3 66.9-149.3 149.3 0 82.5 66.9 149.3 149.3 149.3 82.5 0 149.3-66.9 149.3-149.3 0-82.5-66.8-149.3-149.3-149.3zm388.3-149.4h-179.2l-59.7-89.6h-298.7l-59.7 89.6h-179.3c-33 0-59.7 26.7-59.7 59.7v477.9c0 33 26.7 59.7 59.7 59.7h776.5c33 0 59.7-26.7 59.7-59.7v-477.8c.1-33-26.6-59.8-59.6-59.8zm-388.3 492.8c-107.2 0-194.1-86.9-194.1-194.1s86.9-194.1 194.1-194.1 194.1 86.9 194.1 194.1-86.9 194.1-194.1 194.1zm298.7-388.2c-16.5 0-29.9-13.4-29.9-29.9s13.4-29.9 29.9-29.9 29.9 13.4 29.9 29.9-13.4 29.9-29.9 29.9z" fill="#8a8a8a"/></svg>