<svg height="64" viewBox="0 0 1024 1024" width="64" xmlns="http://www.w3.org/2000/svg"><path d="m298.666667 149.333333c82.410667 0 149.333333 66.986667 149.333333 149.333334v149.333333h-149.333333c-82.410667 0-149.333333-66.986667-149.333334-149.333333 0-82.410667 66.986667-149.333333 149.333334-149.333334zm0 341.333334h192v-192c0-105.92-86.016-192-192-192-105.92 0-192 86.016-192 192 0 105.92 86.016 192 192 192zm0 42.666666c-105.984 0-192 86.08-192 192 0 105.984 86.08 192 192 192 105.984 0 192-86.08 192-192v-170.666666a21.333333 21.333333 0 0 0 -21.333334-21.333334zm149.333333 192c0 82.346667-66.922667 149.333333-149.333333 149.333334-82.346667 0-149.333333-66.922667-149.333334-149.333334 0-82.346667 66.922667-149.333333 149.333334-149.333333h149.333333zm277.333333-149.333333c82.410667 0 149.333333 66.986667 149.333334 149.333333 0 82.410667-66.986667 149.333333-149.333334 149.333334-82.453333 0-149.333333-66.88-149.333333-149.269334v-24.298666a21.333333 21.333333 0 0 0 -42.666667 0v24.298666c0 105.941334 85.973334 191.936 192 191.936 105.92 0 192-86.016 192-192 0-105.92-86.016-192-192-192h-170.666666a21.333333 21.333333 0 0 0 0 42.666667zm0-469.333333c-105.984 0-192 86.08-192 192v170.666666a21.333333 21.333333 0 0 0 21.333334 21.333334h170.666666c105.984 0 192-86.08 192-192 0-105.984-86.08-192-192-192zm0 341.333333h-149.333333v-149.333333c0-82.346667 66.922667-149.333333 149.333333-149.333334 82.346667 0 149.333333 66.922667 149.333334 149.333334 0 82.346667-66.922667 149.333333-149.333334 149.333333z" fill="#707070"/></svg>