<svg height="128" viewBox="0 0 1239 1024" width="154.875" xmlns="http://www.w3.org/2000/svg"><path d="m856.63744 276.48h75.20256a51.2 51.2 0 0 1 51.2 51.2v378.88a51.2 51.2 0 0 1 -51.2 51.2h-44.4416zm-497.33632 481.28h-52.10112a51.2 51.2 0 0 1 -51.2-51.2v-378.88a51.2 51.2 0 0 1 51.2-51.2h51.07712z" fill="#efeff2"/><path d="m409.6 174.08h345.84576l133.96992 130.70336 1.3312 504.04352a51.2 51.2 0 0 1 -51.2 51.33312h-429.94688a51.2 51.2 0 0 1 -51.2-51.2v-583.68a51.2 51.2 0 0 1 51.2-51.2zm61.44 174.08a20.48 20.48 0 1 0 0 40.96h307.2a20.48 20.48 0 1 0 0-40.96zm0 112.64a20.48 20.48 0 1 0 0 40.96h307.2a20.48 20.48 0 1 0 0-40.96zm0 133.12a20.48 20.48 0 1 0 0 40.96h133.12a20.48 20.48 0 1 0 0-40.96z" fill="#e9e8ed"/><path d="m823.415652 860.995139 11.997962 11.997962a20.48 20.48 0 0 1 25.719227 2.650123l46.022356 46.022356a20.48 20.48 0 0 1 0 28.963094l-5.647803 5.647803a20.48 20.48 0 0 1 -28.963094 0l-46.029597-46.029597a20.48 20.48 0 0 1 -2.642882-25.726468l-11.997962-11.997962c-54.465098 48.484219-137.965697 46.616099-190.186155-5.604358-54.160985-54.160985-54.153745-141.955363 0-196.109108 54.160985-54.160985 141.962604-54.160985 196.116349-.007241 52.220458 52.220458 54.081337 135.728298 5.604358 190.186155zm-28.680704-17.138911c41.417224-41.417224 41.417224-108.553675 0-149.970899s-108.546434-41.409983-149.963658.007241-41.409983 108.560916 0 149.970899c41.417224 41.417224 108.560916 41.409983 149.970899 0z" fill="#dedede"/><path d="m754.8928 174.08h.55296l133.96992 130.70336v2.2528l-83.52768-.34816a51.2 51.2 0 0 1 -50.9952-51.2z" fill="#bbbac2"/><path d="m822.9888 842.8544c-56.09472 50.10432-142.2336 48.2304-196.07552-5.61152-55.78752-55.77728-55.78752-146.2272 0-202.00448 55.77728-55.77728 146.2272-55.77728 202.00448 0 53.84192 53.85216 55.7056 139.9808 5.60128 196.07552l9.05216 9.05216a20.48 20.48 0 0 1 25.72288 2.64192l46.01856 46.0288a20.48 20.48 0 0 1 0 28.95872l-5.64224 5.65248a20.48 20.48 0 0 1 -28.96896 0l-46.01856-46.0288a20.48 20.48 0 0 1 -2.64192-25.71264zm-23.04-34.57024c39.79264-39.79264 39.79264-104.2944 0-144.0768-39.7824-39.79264-104.2944-39.79264-144.0768 0-39.7824 39.7824-39.7824 104.28416 0 144.0768 39.7824 39.7824 104.2944 39.7824 144.0768 0z" fill="#bfbdc7"/><path d="m133.12 92.16a40.96 40.96 0 1 1 0 81.92 40.96 40.96 0 0 1 0-81.92zm230.4 860.16a35.84 35.84 0 1 1 0 71.68 35.84 35.84 0 0 1 0-71.68zm783.36-317.44a61.44 61.44 0 1 1 0 122.88 61.44 61.44 0 0 1 0-122.88z" fill="#dcdbe3"/></svg>